<?xml version="1.0" encoding="UTF-8" ?>
<!DOCTYPE svg PUBLIC "-//W3C//DTD SVG 1.1//EN" "http://www.w3.org/Graphics/SVG/1.1/DTD/svg11.dtd">
<svg width="207pt" height="165pt" viewBox="0 0 207 165" version="1.1" xmlns="http://www.w3.org/2000/svg">
<path fill="#ffffff" d=" M 0.00 0.00 L 207.00 0.00 L 207.00 165.00 L 0.00 165.00 L 0.00 0.00 Z" />
<path fill="#9fbc2f" d=" M 73.14 8.14 C 77.03 6.68 81.13 4.53 85.40 5.74 C 75.19 9.13 64.60 13.02 57.00 21.00 C 47.39 30.45 44.07 44.85 46.06 57.91 C 46.96 67.48 51.97 76.16 52.09 85.85 C 53.18 105.10 62.94 123.04 76.95 136.00 C 72.45 133.71 69.22 129.73 66.13 125.88 C 57.99 115.35 52.14 102.87 50.31 89.62 C 49.22 84.14 50.04 78.38 47.87 73.10 C 43.20 59.78 41.02 44.48 47.20 31.26 C 51.90 20.16 62.26 12.58 73.14 8.14 Z" />
<path fill="#009548" d=" M 85.40 5.74 C 86.53 5.42 87.70 5.23 88.84 4.98 C 93.43 20.25 89.47 36.70 82.54 50.61 C 76.43 62.48 68.54 73.57 58.95 82.88 C 56.60 69.15 59.40 54.83 65.39 42.37 C 67.99 36.90 71.65 32.06 74.97 27.02 C 64.70 36.99 58.10 50.44 55.50 64.44 C 52.33 81.52 55.59 99.66 64.31 114.68 C 74.33 132.05 91.58 145.13 111.06 149.94 C 127.83 154.19 145.94 152.26 161.64 145.05 C 159.07 140.93 156.72 136.60 155.64 131.83 C 155.42 128.01 155.51 124.19 155.63 120.37 C 159.98 120.63 164.41 121.13 168.45 122.88 C 169.40 123.36 170.31 123.89 171.19 124.49 C 174.65 126.75 177.91 129.29 181.00 132.03 C 187.39 137.82 192.48 144.91 196.16 152.70 C 185.96 154.46 174.34 154.75 165.56 148.41 C 164.42 147.77 163.45 146.66 162.12 146.48 C 159.99 147.08 158.02 148.11 155.97 148.94 C 147.13 152.72 137.55 154.38 128.03 155.17 C 109.53 154.85 90.75 148.57 76.95 136.00 C 62.94 123.04 53.18 105.10 52.09 85.85 C 51.97 76.16 46.96 67.48 46.06 57.91 C 44.07 44.85 47.39 30.45 57.00 21.00 C 64.60 13.02 75.19 9.13 85.40 5.74 Z" />
<path fill="#9fbc2f" d=" M 55.50 64.44 C 58.10 50.44 64.70 36.99 74.97 27.02 C 71.65 32.06 67.99 36.90 65.39 42.37 C 59.40 54.83 56.60 69.15 58.95 82.88 C 60.34 97.72 67.37 111.71 77.52 122.50 C 88.85 134.17 104.30 141.94 120.54 143.40 C 126.16 142.81 131.80 142.58 137.43 142.28 C 143.34 140.90 150.09 140.02 154.39 135.29 C 153.82 134.83 152.68 133.91 152.12 133.45 C 153.29 132.91 154.46 132.37 155.64 131.83 C 156.72 136.60 159.07 140.93 161.64 145.05 C 145.94 152.26 127.83 154.19 111.06 149.94 C 91.58 145.13 74.33 132.05 64.31 114.68 C 55.59 99.66 52.33 81.52 55.50 64.44 Z" />
<path fill="#000000" d=" M 171.45 41.79 C 172.92 40.65 174.35 39.44 176.00 38.57 C 181.56 38.37 187.94 42.88 187.79 48.84 C 187.76 52.16 183.96 52.42 181.70 53.62 C 180.55 55.01 179.63 56.57 178.73 58.13 C 176.75 54.82 174.42 51.74 172.36 48.49 C 171.00 46.52 171.69 44.01 171.45 41.79 Z" />
<path fill="#9fbc2f" d=" M 4.43 47.36 C 6.67 46.71 8.97 46.67 11.15 47.52 C 9.50 47.65 7.85 47.85 6.20 48.04 C 5.92 56.38 7.58 64.80 12.05 71.93 C 6.70 67.92 5.38 60.92 4.10 54.77 C 3.40 52.31 4.00 49.80 4.43 47.36 Z" />
<path fill="#009548" d=" M 6.20 48.04 C 7.85 47.85 9.50 47.65 11.15 47.52 C 27.95 51.38 39.68 65.72 47.53 80.21 C 35.42 82.88 20.76 81.76 12.05 71.93 C 7.58 64.80 5.92 56.38 6.20 48.04 Z" />
<path fill="#000000" d=" M 166.12 48.20 C 169.47 52.31 172.49 56.66 175.30 61.16 C 175.84 61.18 176.90 61.23 177.43 61.26 C 170.29 61.92 163.05 61.87 155.92 61.03 C 161.57 60.17 167.28 60.17 172.97 60.21 C 170.29 56.44 167.82 52.52 166.12 48.20 Z" />
<path fill="#9fbc2f" d=" M 198.12 60.18 C 202.61 71.56 202.66 84.36 200.04 96.20 C 197.29 109.67 190.28 121.99 181.00 132.03 C 177.91 129.29 174.65 126.75 171.19 124.49 C 173.76 123.51 176.26 122.19 177.99 119.98 C 181.77 115.42 185.48 110.72 188.38 105.54 C 195.59 91.53 196.50 75.54 198.12 60.18 Z" />
<path fill="#000000" d=" M 156.79 65.83 C 162.43 65.15 168.17 65.84 173.85 65.48 C 171.10 69.25 168.41 73.07 166.21 77.19 C 160.07 77.29 153.93 77.57 147.80 77.26 C 150.73 73.40 153.71 69.57 156.79 65.83 Z" />
<path fill="#9fbc2f" d=" M 143.99 77.36 C 148.83 74.11 149.99 66.05 156.79 65.83 C 153.71 69.57 150.73 73.40 147.80 77.26 C 153.93 77.57 160.07 77.29 166.21 77.19 C 171.11 77.61 176.02 77.52 180.93 77.57 C 182.57 77.38 183.81 78.54 185.10 79.34 C 146.10 79.61 107.10 79.40 68.10 79.45 C 68.12 93.83 73.59 108.11 83.31 118.72 C 86.33 122.00 89.69 124.96 93.12 127.81 C 88.14 125.91 84.52 121.87 80.97 118.07 C 74.35 110.72 69.81 101.66 67.11 92.20 C 65.96 88.09 65.04 83.78 65.72 79.51 C 66.08 78.07 67.73 77.54 69.06 77.59 C 94.03 77.36 119.04 77.86 143.99 77.36 Z" />
<path fill="#000000" d=" M 68.10 79.45 C 107.10 79.40 146.10 79.61 185.10 79.34 C 185.71 79.33 186.93 79.33 187.54 79.32 C 187.42 95.70 180.23 111.58 168.45 122.88 C 164.41 121.13 159.98 120.63 155.63 120.37 C 155.51 124.19 155.42 128.01 155.64 131.83 C 154.46 132.37 153.29 132.91 152.12 133.45 C 133.32 142.22 109.93 139.94 93.12 127.81 C 89.69 124.96 86.33 122.00 83.31 118.72 C 73.59 108.11 68.12 93.83 68.10 79.45 Z" />
<path fill="#ffffff" d=" M 91.05 87.10 C 94.21 85.29 97.77 87.23 101.13 86.69 C 100.75 88.58 100.36 90.47 99.95 92.36 C 98.52 90.59 97.73 87.48 94.98 87.50 C 92.31 87.02 90.37 89.01 89.08 91.07 C 92.01 93.80 97.16 92.10 99.45 95.57 C 101.86 100.66 96.18 106.34 91.04 105.38 C 88.96 104.84 86.85 104.49 84.71 104.88 C 85.13 102.87 85.57 100.87 86.03 98.87 C 87.42 100.86 88.33 103.79 91.08 104.20 C 93.96 104.65 97.96 102.68 97.69 99.35 C 95.52 96.32 91.05 97.78 88.40 95.53 C 85.85 92.75 88.03 88.46 91.05 87.10 Z" />
<path fill="#ffffff" d=" M 133.81 90.20 C 133.51 87.49 136.13 85.90 138.10 87.99 C 137.57 90.10 135.69 90.33 133.81 90.20 Z" />
<path fill="#ffffff" d=" M 161.40 91.26 C 162.18 91.19 163.74 91.05 164.52 90.98 C 164.37 91.69 164.07 93.10 163.92 93.81 C 164.94 93.97 166.98 94.29 168.00 94.45 C 166.55 94.94 165.05 95.27 163.55 95.61 C 163.00 98.54 162.39 101.48 162.12 104.46 C 163.86 103.71 165.56 102.84 167.32 102.10 C 165.66 105.27 162.04 106.10 158.78 105.09 C 158.67 101.84 159.63 98.71 159.98 95.51 C 159.32 95.32 158.01 94.95 157.35 94.76 C 159.17 94.11 160.90 93.30 161.40 91.26 Z" />
<path fill="#ffffff" d=" M 103.06 101.76 C 101.98 95.64 110.26 91.39 114.97 95.17 C 115.08 97.53 113.64 99.02 111.25 98.35 C 111.48 97.14 111.71 95.92 111.95 94.71 C 106.79 94.48 106.67 100.48 106.82 104.22 C 110.15 104.98 112.30 102.32 114.67 100.55 C 113.87 106.19 104.58 107.59 103.06 101.76 Z" />
<path fill="#ffffff" d=" M 116.61 94.02 C 118.99 94.27 121.99 93.21 123.89 95.10 C 123.18 97.87 121.92 100.52 121.38 103.37 C 122.43 103.90 123.46 104.46 124.49 105.04 C 121.15 105.34 117.78 105.40 114.45 104.95 C 115.61 104.47 116.79 104.04 117.99 103.65 C 118.51 101.03 119.02 98.41 119.64 95.81 C 118.62 95.22 117.61 94.63 116.61 94.02 Z" />
<path fill="#ffffff" d=" M 124.82 94.17 C 125.66 94.09 127.35 93.93 128.19 93.84 C 128.17 94.72 128.13 96.48 128.11 97.35 C 125.77 97.88 123.58 96.81 124.82 94.17 Z" />
<path fill="#ffffff" d=" M 130.13 94.05 C 132.24 93.98 134.35 93.95 136.46 93.85 C 135.84 97.05 135.22 100.25 134.46 103.41 C 135.39 103.95 136.31 104.50 137.23 105.06 C 134.04 105.32 130.82 105.37 127.64 105.00 C 128.48 104.65 130.16 103.97 131.00 103.62 C 131.50 101.08 132.00 98.52 132.60 96.00 C 131.98 95.51 130.75 94.54 130.13 94.05 Z" />
<path fill="#ffffff" d=" M 139.31 94.00 C 142.56 93.86 145.81 94.57 149.04 93.91 C 151.90 93.19 154.41 96.22 153.96 98.94 C 153.39 103.62 147.81 107.17 143.53 104.55 C 143.23 106.45 142.83 108.34 142.39 110.21 C 142.93 110.76 144.03 111.87 144.57 112.42 C 141.78 112.54 138.98 112.53 136.19 112.42 C 136.86 111.94 138.18 110.98 138.84 110.50 C 140.05 105.62 140.66 100.61 141.90 95.73 C 141.25 95.30 139.96 94.43 139.31 94.00 Z" />
<path fill="#000000" d=" M 144.60 103.35 C 143.38 99.62 145.74 94.59 150.16 94.70 C 150.21 97.68 150.02 100.86 148.47 103.48 C 147.40 104.82 145.73 104.23 144.60 103.35 Z" />
<path fill="#ffffff" d=" M 101.74 113.13 C 105.00 113.05 108.25 113.01 111.51 113.06 C 110.45 113.52 109.38 113.97 108.31 114.40 C 107.77 117.72 107.14 121.02 106.29 124.27 C 106.72 124.76 107.57 125.74 107.99 126.23 C 105.23 126.28 102.45 126.31 99.70 126.06 C 100.71 125.73 101.72 125.40 102.73 125.07 C 103.42 121.46 104.13 117.85 104.92 114.25 C 103.86 113.89 102.80 113.51 101.74 113.13 Z" />
<path fill="#ffffff" d=" M 125.65 118.65 C 126.46 114.69 130.17 111.66 134.32 112.89 C 134.16 113.46 133.83 114.58 133.67 115.14 C 132.46 116.36 131.17 114.37 129.97 114.06 C 129.64 115.62 128.91 117.38 130.45 118.51 C 128.01 120.05 127.12 124.16 129.21 126.34 C 127.25 126.24 125.28 126.26 123.32 126.32 C 125.41 124.33 125.46 121.34 125.65 118.65 Z" />
<path fill="#ffffff" d=" M 147.65 113.63 C 150.13 112.21 155.68 112.68 154.70 116.67 C 153.04 120.36 148.81 121.90 145.96 124.55 C 148.80 124.83 151.61 124.53 153.45 122.07 C 153.24 123.11 152.83 125.19 152.62 126.23 C 149.29 126.27 145.97 126.29 142.66 126.14 C 145.60 122.38 151.83 120.73 151.50 115.03 C 150.72 114.72 149.16 114.11 148.38 113.80 C 148.52 115.20 148.72 116.60 148.91 118.00 C 148.10 117.94 146.46 117.83 145.64 117.78 C 145.89 116.25 146.01 114.35 147.65 113.63 Z" />
<path fill="#ffffff" d=" M 111.40 118.04 C 114.66 118.31 117.94 118.06 121.22 118.22 C 121.26 120.92 120.85 123.59 120.61 126.27 C 119.45 126.28 118.29 126.28 117.13 126.28 C 117.73 123.75 118.28 121.20 118.54 118.61 C 114.98 119.41 114.74 123.30 114.54 126.27 C 113.39 126.28 112.25 126.28 111.11 126.28 C 111.46 123.55 113.46 120.49 111.40 118.04 Z" />
<path fill="#ffffff" d=" M 134.56 118.64 C 137.11 117.50 141.53 117.59 141.98 121.13 C 142.13 125.92 134.91 128.56 132.03 124.71 C 131.04 122.41 132.36 119.67 134.56 118.64 Z" />
<path fill="#000000" d=" M 135.88 119.03 C 136.65 119.07 138.20 119.15 138.97 119.18 C 138.55 121.86 138.68 126.44 134.66 125.68 C 134.84 123.43 135.26 121.21 135.88 119.03 Z" />
<path fill="#ffffff" d=" M 163.84 131.82 C 166.44 128.33 171.06 129.05 174.81 129.56 C 174.69 130.78 174.57 132.00 174.44 133.22 C 172.80 131.46 171.04 128.95 168.26 130.05 C 165.19 132.31 165.70 136.80 165.10 140.18 C 167.55 141.46 169.71 140.23 170.88 137.91 C 169.95 137.40 169.02 136.89 168.09 136.38 C 170.69 136.51 173.29 136.52 175.89 136.40 C 173.32 139.06 170.48 142.36 166.32 141.42 C 161.62 141.08 160.83 134.67 163.84 131.82 Z" />
<path fill="#ffffff" d=" M 176.77 141.90 C 176.52 136.69 186.17 134.73 186.96 140.23 C 187.07 143.06 184.34 144.54 182.23 145.76 C 182.95 143.28 183.62 140.79 184.05 138.24 C 183.25 138.17 181.63 138.04 180.83 137.97 C 180.08 140.56 179.94 143.25 180.20 145.92 C 178.80 144.82 176.33 144.14 176.77 141.90 Z" />
</svg>
